<svg enable-background="new 0 0 44 65" height="65" viewBox="0 0 44 65" width="44" xmlns="http://www.w3.org/2000/svg"><g fill="#fff"><path d="m37.91 30.438v10.869s.105 2.735-2.825 2.735c-3.069 0-3.125-2.735-3.125-2.735s0-6.176 0-6.416-.336-1.909-2.319-1.909c-2.625 0-2.67 1.877-2.67 1.877v19.221s.029 1.863-2.464 1.863c-2.507 0-2.507-1.983-2.507-1.983v-13.944s0-2.945-3.805-2.945c-4.054 0-3.967 3.125-3.967 3.125v3.728s-.121 2.945-4.688 2.945-4.628-4.509-4.628-4.509v-12.422c-1.744-.962-4.912-3.267-4.912-3.267v29.332s2.988 8.997 22 8.997 22-8.695 22-8.695v-29.634c-2.938 2.829-6.09 3.767-6.09 3.767z"/><path d="m22 0c-20.312 0-22 19.875-22 19.875v3.062c8.438 6.251 22 6.063 22 6.063s13.562.188 22-6.062v-3.062c0-.001-1.688-19.876-22-19.876zm0 25c-11.75 0-14.312-2.375-14.312-2.375 6.25-2.875 14.312-2.75 14.312-2.75s8.062-.125 14.312 2.75c0 0-2.562 2.375-14.312 2.375zm0-12.375c-9.562 0-17.688 2.938-17.688 2.938 4.563-12.938 17.688-12.501 17.688-12.501s13.125-.438 17.688 12.5c0 0-8.126-2.937-17.688-2.937z"/></g></svg>